<?xml version="1.0" ?><svg viewBox="0 0 64 64" xmlns="http://www.w3.org/2000/svg"><defs><style>.cls-1{fill:none;}.cls-1,.cls-3,.cls-4,.cls-5,.cls-6{stroke:#4c241d;stroke-linecap:round;stroke-linejoin:round;stroke-width:2px;}.cls-2{fill:#4c241d;}.cls-3{fill:#9dc1e4;}.cls-4{fill:#6b4f5b;}.cls-5{fill:#a9ba5a;}.cls-6{fill:#fc8c29;}</style></defs><g id="coomunication"><line class="cls-1" x1="37.5858" x2="40.4142" y1="11.0858" y2="13.9142"/><line class="cls-1" x1="40.4142" x2="37.5858" y1="11.0858" y2="13.9142"/><circle class="cls-2" cx="55.0821" cy="17.0978" r="1.0691"/><path class="cls-3" d="M60,56.5a28,28,0,0,0-56,0"/><path class="cls-4" d="M6.7316,44.4262,8,49.5l5,1,4,4h6v-3l-5-1-5-4v-6l6,2,3-3-3.3787-7.6021A28.1183,28.1183,0,0,0,6.7316,44.4262Z"/><polyline class="cls-1" points="30.036 51.733 34.151 51.477 37.964 50.267"/><line class="cls-1" x1="23" x2="22" y1="42.5" y2="43.5"/><polygon class="cls-4" points="33 42.5 32 39.5 28 37.5 27 34.5 34 36.5 35 41.5 33 42.5"/><line class="cls-1" x1="22" x2="24" y1="47.5" y2="48.5"/><line class="cls-1" x1="28" x2="29" y1="47.5" y2="46.5"/><path class="cls-4" d="M48,48.5c2,3,4,2,4,2a9.0909,9.0909,0,0,1,5.08-6.4494,28.1064,28.1064,0,0,0-7.25-9.14L45,42.5v4S46,45.5,48,48.5Z"/><path class="cls-5" d="M30.0588,10H13.9412A1.9412,1.9412,0,0,0,12,11.9412V22.0588A1.9412,1.9412,0,0,0,13.9412,24H17l4,4V24h9.0588A1.9412,1.9412,0,0,0,32,22.0588V11.9412A1.9412,1.9412,0,0,0,30.0588,10Z"/><path class="cls-6" d="M40.9412,23H57.0588A1.9412,1.9412,0,0,1,59,24.9412V35.0588A1.9412,1.9412,0,0,1,57.0588,37H54l-4,4V37H40.9412A1.9412,1.9412,0,0,1,39,35.0588V24.9412A1.9412,1.9412,0,0,1,40.9412,23Z"/><circle class="cls-2" cx="18.0821" cy="17.0978" r="1.0691"/><circle class="cls-2" cx="22.0821" cy="17.0978" r="1.0691"/><circle class="cls-2" cx="26.0821" cy="17.0978" r="1.0691"/><circle class="cls-2" cx="45.0821" cy="30.0978" r="1.0691"/><circle class="cls-2" cx="49.0821" cy="30.0978" r="1.0691"/><circle class="cls-2" cx="53.0821" cy="30.0978" r="1.0691"/></g></svg>